<?xml version="1.0" standalone="no"?>
<!DOCTYPE svg PUBLIC "-//W3C//DTD SVG 20010904//EN"
 "http://www.w3.org/TR/2001/REC-SVG-20010904/DTD/svg10.dtd">
<svg version="1.0" xmlns="http://www.w3.org/2000/svg"
 width="2133.000000pt" height="2004.000000pt" viewBox="0 0 2133.000000 2004.000000"
 preserveAspectRatio="xMidYMid meet">

<g transform="translate(0.000000,2004.000000) scale(0.100000,-0.100000)"
fill="#ffe0da" stroke="none">
<path d="M9563 19268 c8 -64 40 -133 87 -190 l40 -46 -68 -48 c-233 -166 -379
-421 -439 -764 -26 -146 -23 -483 5 -665 12 -77 25 -150 28 -162 6 -20 3 -23
-22 -23 -46 0 -93 -35 -117 -88 -19 -40 -22 -64 -21 -162 0 -98 6 -137 38
-264 79 -314 158 -480 246 -516 19 -8 32 -22 36 -39 34 -148 75 -264 143 -398
l41 -83 0 -328 c0 -385 16 -339 -150 -422 -479 -238 -1083 -612 -1519 -941
-349 -262 -439 -350 -507 -494 -64 -134 -64 -136 -64 -707 l0 -518 3355 0
3355 0 0 503 c0 564 -1 572 -72 715 -54 110 -142 203 -332 351 -487 381 -1178
818 -1706 1081 -143 71 -130 30 -130 412 l0 328 51 101 c55 111 115 280 125
353 6 42 11 49 46 67 69 35 128 139 192 338 90 277 123 473 97 569 -19 67 -66
113 -124 119 -26 3 -47 6 -47 8 0 1 11 66 24 146 63 369 56 647 -22 867 -77
218 -234 365 -430 405 l-63 13 -23 56 c-38 93 -74 146 -150 221 -131 129 -312
216 -496 240 -75 9 -106 8 -207 -8 -224 -34 -666 -31 -1077 9 l-128 12 5 -48z"/>
<path d="M10300 10864 c-98 -42 -112 -78 -172 -439 l-51 -303 -146 -48 c-96
-31 -205 -77 -318 -134 l-171 -86 -234 154 c-128 84 -257 165 -287 179 -64 30
-150 35 -197 10 -16 -9 -140 -127 -276 -264 -203 -205 -248 -255 -257 -288
-14 -51 -14 -74 0 -116 13 -37 12 -36 231 -341 l149 -206 -70 -144 c-65 -132
-130 -309 -162 -435 -7 -31 -19 -55 -28 -57 -9 -3 -144 -26 -301 -51 -314 -52
-356 -65 -401 -128 -47 -66 -51 -94 -47 -435 3 -276 5 -321 20 -348 23 -41 79
-89 120 -103 18 -6 157 -31 308 -56 151 -25 284 -47 295 -50 16 -4 29 -31 60
-127 24 -74 76 -196 132 -308 l92 -185 -175 -244 c-97 -134 -182 -262 -190
-284 -18 -52 -18 -119 2 -165 16 -39 443 -477 499 -512 45 -28 108 -39 157
-28 31 7 115 61 301 195 l259 185 146 -70 c128 -61 364 -147 458 -166 l31 -7
47 -287 c26 -158 54 -306 62 -330 21 -56 57 -98 106 -123 37 -19 56 -20 387
-17 l347 3 41 27 c66 44 79 83 135 421 l51 304 91 27 c145 44 272 94 401 158
104 52 123 58 140 47 11 -6 115 -81 232 -165 117 -84 229 -162 250 -172 55
-28 112 -35 169 -21 45 11 67 30 288 248 253 251 286 293 286 376 0 23 -8 56
-18 76 -10 19 -97 145 -195 281 l-178 247 49 88 c27 48 68 131 92 183 45 100
120 313 120 342 0 20 -18 16 336 72 155 25 294 50 310 56 47 18 93 58 117 103
22 41 22 49 22 372 0 182 -3 342 -8 358 -10 37 -70 102 -108 117 -17 7 -168
36 -336 64 l-305 51 -48 145 c-56 169 -103 281 -172 402 l-49 88 165 228 c200
277 206 287 213 355 10 99 3 109 -261 376 -132 134 -255 249 -273 257 -46 20
-140 17 -188 -5 -22 -11 -145 -95 -274 -188 l-233 -169 -172 86 c-112 57 -221
103 -317 134 l-146 48 -51 306 c-60 355 -68 375 -161 424 l-53 28 -327 0
c-268 -1 -332 -3 -361 -16z m610 -1954 c175 -38 315 -102 459 -211 572 -430
616 -1244 94 -1740 -97 -93 -175 -147 -296 -204 -432 -207 -939 -127 -1281
204 -182 177 -286 365 -336 610 -22 110 -27 293 -10 398 64 395 336 736 703
883 217 87 447 107 667 60z"/>
<path d="M3470 8691 c0 -60 34 -140 84 -197 l45 -51 -68 -46 c-220 -151 -371
-403 -438 -732 -28 -140 -25 -553 5 -728 28 -163 28 -157 -9 -157 -43 0 -103
-61 -119 -120 -22 -80 -7 -255 34 -414 80 -302 166 -474 252 -500 17 -5 24
-20 34 -68 17 -86 63 -215 126 -347 l54 -114 0 -316 c0 -284 -2 -318 -18 -337
-9 -12 -84 -56 -167 -99 -460 -239 -931 -527 -1340 -819 -191 -136 -438 -327
-503 -390 -59 -56 -126 -151 -161 -228 -57 -126 -61 -168 -61 -713 l0 -495
1460 0 c967 0 1460 -3 1460 -10 0 -7 640 -10 1901 -10 l1900 0 -3 533 c-4 595
-1 567 -80 719 -54 105 -137 191 -315 330 -492 384 -1068 752 -1643 1051 -85
44 -167 91 -182 105 l-28 26 0 316 0 317 64 134 c66 138 109 258 121 342 6 40
12 50 34 58 82 32 148 154 226 419 75 254 97 424 67 511 -17 49 -59 86 -110
98 -24 5 -46 12 -49 14 -3 3 4 59 16 124 35 205 44 317 38 507 -4 151 -9 198
-31 281 -66 257 -213 430 -415 489 -30 9 -67 16 -82 16 -23 0 -29 6 -44 52
-25 78 -62 134 -139 216 -121 127 -282 215 -454 248 -97 18 -171 18 -290 -3
-135 -24 -646 -24 -927 0 -110 10 -210 20 -222 22 -21 5 -23 2 -23 -34z"/>
<path d="M15660 8682 c0 -60 35 -137 89 -195 l41 -44 -58 -38 c-75 -50 -193
-165 -248 -241 -52 -73 -112 -191 -148 -292 -85 -238 -103 -613 -46 -947 25
-148 25 -145 -6 -145 -43 0 -83 -31 -110 -87 -22 -44 -26 -65 -25 -146 0 -110
3 -131 42 -288 33 -133 90 -301 125 -372 31 -59 97 -133 127 -141 18 -4 25
-19 40 -87 23 -101 70 -226 131 -347 l46 -92 0 -313 c0 -300 -1 -315 -20 -340
-11 -14 -91 -62 -178 -108 -600 -314 -1160 -671 -1655 -1057 -190 -148 -264
-228 -323 -346 -72 -147 -74 -162 -74 -733 l0 -503 3361 0 3360 0 -3 528 -4
527 -26 80 c-49 145 -121 246 -260 361 -433 361 -1141 815 -1736 1114 -106 54
-199 106 -207 116 -12 16 -14 78 -15 338 l0 318 59 122 c63 129 102 237 122
336 10 54 15 62 43 74 85 36 156 183 247 513 33 119 42 171 46 264 5 102 3
121 -15 162 -23 52 -62 81 -122 91 l-38 6 10 42 c46 209 70 546 50 718 -33
277 -135 471 -306 582 -62 40 -167 78 -216 78 -24 0 -30 6 -49 58 -78 214
-318 402 -583 456 -98 20 -190 20 -298 0 -119 -21 -474 -29 -705 -15 -198 12
-390 28 -437 36 -27 4 -28 3 -28 -43z"/>
</g>
</svg>
